<svg width="707" height="800" viewBox="0 0 707 800" fill="none" xmlns="http://www.w3.org/2000/svg">
<path d="M664.901 203.866L359.766 26.6484L26.6494 213.194V586.284L359.766 772.829L679.558 586.284V213.194V197.204L664.901 203.866Z" fill="#202A5A"/>
<path d="M26.6494 213.194L359.766 399.739L679.558 213.194L359.766 26.6484L26.6494 213.194Z" fill="#2C448A"/>
<path d="M679.557 197.205L572.96 253.169L571.628 277.153L359.766 399.74V772.83L679.557 586.285V197.205Z" fill="#283A79"/>
<path d="M26.6494 213.195V586.286L359.766 772.831V399.741L26.6494 213.195Z" fill="#202A5A"/>
<path d="M0 586.285V466.363L359.766 679.558V799.48L0 586.285Z" fill="#3558A7"/>
<path d="M0 213.195V279.819L359.766 493.013V426.39L0 213.195Z" fill="#3558A7"/>
<path d="M706.207 586.286V519.662L414.397 393.078L359.766 426.39V491.681L536.984 570.296L359.766 679.558V799.48L706.207 586.286Z" fill="#416FB5"/>
<path d="M536.984 570.295L515.664 562.3L359.766 652.908L26.6493 466.363V450.373L0 466.363L359.766 679.557L536.984 570.295Z" fill="#477FC1"/>
<path d="M157.231 239.844L359.766 119.922L572.96 253.169L679.558 197.205L359.766 0L0 213.195L359.766 426.389L414.397 393.077L157.231 239.844Z" fill="#477FC1"/>
<path d="M571.628 277.153L572.96 253.168L359.766 119.922L157.231 239.844L179.883 253.168L359.766 146.571L571.628 277.153Z" fill="#202A5A"/>
</svg>
